<?xml version="1.0" standalone="no"?>
<!DOCTYPE svg PUBLIC "-//W3C//DTD SVG 20010904//EN"
 "http://www.w3.org/TR/2001/REC-SVG-20010904/DTD/svg10.dtd">
<svg version="1.0" xmlns="http://www.w3.org/2000/svg"
 width="260.000000pt" height="260.000000pt" viewBox="0 0 260.000000 260.000000"
 preserveAspectRatio="xMidYMid meet">
<metadata>
Created by potrace 1.14, written by Peter Selinger 2001-2017
</metadata>
<g transform="translate(0.000000,260.000000) scale(0.100000,-0.100000)"
fill="#000000" stroke="none">
<path d="M770 2587 c-91 -40 -164 -148 -188 -277 -12 -62 -5 -299 9 -317 1 -2
2 -6 3 -10 1 -5 10 -33 21 -63 74 -218 241 -338 386 -276 68 29 140 126 170
231 21 75 19 282 -5 370 -37 139 -123 269 -212 321 -50 29 -142 40 -184 21z"/>
<path d="M1699 2591 c-82 -25 -167 -112 -220 -225 -21 -45 -40 -92 -43 -106
-3 -14 -8 -36 -11 -50 -13 -49 -17 -226 -7 -275 18 -88 21 -98 48 -152 113
-233 356 -199 490 67 51 101 73 210 69 340 -3 126 -4 131 -34 210 -30 78 -70
130 -124 164 -49 30 -119 41 -168 27z"/>
<path d="M201 1837 c-35 -7 -58 -22 -104 -68 -33 -33 -57 -63 -53 -66 3 -3 2
-11 -3 -17 -38 -47 -49 -241 -19 -342 19 -60 67 -158 100 -198 76 -97 183
-158 273 -157 342 4 364 594 30 806 -75 48 -139 60 -224 42z"/>
<path d="M2267 1838 c-21 -4 -62 -23 -92 -43 -50 -32 -66 -46 -125 -115 -33
-39 -87 -158 -100 -225 -53 -259 58 -464 254 -466 93 -2 199 60 273 157 38 49
89 147 98 186 21 95 25 132 21 204 -12 213 -151 341 -329 302z"/>
<path d="M1257 1614 c-1 -1 -26 -5 -56 -8 -77 -9 -193 -61 -249 -111 -59 -53
-90 -109 -141 -254 -22 -62 -54 -134 -70 -159 -17 -26 -85 -101 -151 -167
-167 -165 -241 -268 -266 -371 -15 -58 -10 -217 8 -275 53 -169 195 -264 393
-263 100 0 106 1 220 37 291 93 420 93 708 0 97 -31 125 -36 212 -37 118 -1
190 19 268 73 100 70 153 187 154 337 2 172 -50 268 -259 481 -180 182 -187
193 -245 363 -37 110 -61 155 -109 209 -74 83 -211 139 -350 145 -36 1 -65 1
-67 0z"/>
</g>
</svg>
