<?xml version="1.0" encoding="UTF-8"?>
<svg id="Layer_1" data-name="Layer 1" xmlns="http://www.w3.org/2000/svg" viewBox="0 0 53.02 78.47">
  <defs>
    <style>
      .cls-1 {
        fill: #010101;
        fill-rule: evenodd;
      }
    </style>
  </defs>
  <path class="cls-1" d="m19.48,55.26c0,1.11-1.43,1.54-2.06.64l-6.02-7.3c-2.57-3.12-7.34.75-4.75,3.89l12.9,15.62c12.25,14.83,31.23,7.84,31.23-8.86v-18.46c0-4.06-6.14-4.06-6.14,0v4.63c0,1.48-2.25,1.48-2.25,0v-7.01c0-4.06-6.13-4.06-6.13,0v7.01c0,1.48-2.25,1.48-2.25,0v-9.38c0-4.06-6.13-4.06-6.13,0v9.38c0,1.48-2.25,1.48-2.25,0v-22.87c0-4.06-6.13-4.06-6.13,0v32.72h0Zm16.5-21.06c2.78-2.09,7.25-1.1,8.39,2.37,3.4-2.55,8.66-.5,8.66,4.2v18.46c0,18.74-21.59,26.79-35.21,10.3l-12.9-15.62c-4.48-5.42,3.74-12.18,8.22-6.75l4.09,4.96v-29.59c0-7.04,10.64-7.04,10.64,0v9.1c2.81-1.83,7.01-.79,8.11,2.57Z"/>
  <path class="cls-1" d="m11.12,21.42c1.48,0,1.48,2.25,0,2.25H1.11c-1.48,0-1.48-2.25,0-2.25h10.01Z"/>
  <path class="cls-1" d="m23.67,11.12c0,1.48-2.25,1.48-2.25,0V1.11c0-1.48,2.25-1.48,2.25,0v10.01Z"/>
  <path class="cls-1" d="m15.26,13.67c1.05,1.05-.55,2.64-1.59,1.59l-7.08-7.08c-1.05-1.05.55-2.64,1.59-1.59l7.08,7.08Z"/>
</svg>