<?xml version="1.0" encoding="utf-8"?>
<!-- Generator: Adobe Illustrator 27.4.1, SVG Export Plug-In . SVG Version: 6.00 Build 0)  -->
<svg version="1.1" id="Layer_1" xmlns="http://www.w3.org/2000/svg" xmlns:xlink="http://www.w3.org/1999/xlink" x="0px" y="0px"
	 viewBox="0 0 720.5 514.9" style="enable-background:new 0 0 720.5 514.9;" xml:space="preserve">
<style type="text/css">
	.st0{fill:#FFFFFF;}
</style>
<path class="st0" d="M48,33.8c-3.2,6.1-4.3,5-6.2,10.1c-1.7,4.5,0,7.2,0.3,10.2s0,10.3-1.7,13s-27,21.7-29.3,25c0,0-7.7,4.7-9.3,8
	c-1.7,3.3-3,8.3,0,11s3,2.3,5.3,4.7c2.3,2.3,8,14.3,11.7,16.7c3.7,2.3,8.7,1.3,11.3,3c2.7,1.7,1,5,9,3.7s15.3-7.3,21.3-6.7
	c6,0.7,21,6,27.7,2c0,0-14.3,20.7-18.7,24.7c-4.3,4-8.3,17.7-8.3,17.7s6-7,7.7-7.3c0,0-11,19.3-8.7,27s13.7,32.3,13.3,43
	c-0.3,10.7-10.3,17.3-10.3,17.3s6.3,1,10.3-2.3c0,0-7,14.7-0.7,24.3c6.3,9.7,6,19,6,19s6-12.3,6.3-17.3c-0.4,2.2,0.7,18.3,8,26
	s40.7,18,42.7,23.7s-2,9.3-2,9.3s7.3-1.7,10.3-4.3c0,0,8,9.7,12.3,12.7s8.3,10.3,7,17.3s-2.1,24.7,0.3,31.3c2.4,6.7,8.7,24,7.1,33.3
	c-1.7,9.3,9,33.7,6.7,38.3c-2.3,4.7-6.7,9.7-12.3,12c-5.7,2.3-7.7,1.7-10,6.3c-2.3,4.7-2.7,9.7,0,10.7s8.7,1.3,8.7,1.3
	s2.3,2.3,6.7,3.3c4.3,1,7.3,0,7.3,0s-2,6.3,2.3,8s18,0,18,0s6,6.3,12.7,5s10.7-8.7,15.3-8c4.7,0.7,10,2.3,16-2.3
	c6-4.7,7.3-14.7,7.3-14.7s6.7,3,10.7,2.3c0,0-4.3-26-4-30.3c0,0,8.7-6.7,11.7-12.3c3-5.7,3-16,3-16s2.3,3.3,4.7,4c0,0-6.3-17.7-5-23
	c0,0,0.7,1.3,5,0.7c0,0-8-20.7-6.3-26.7c0,0,7,6.7,10,8.7s2.7,7,2.7,7s7.3-10.7,6.7-15.3c0,0,6.7,6.3,11.3,8c4.7,1.7,12.7,5,12.7,5
	s-6-11.3-5.3-13.7c0,0,14.7,8.7,22.7,7s15.9,4.3,15.9,4.3s-7.3-10.3-6.6-13.7c0,0,14,0.7,18.7-5.3s9-16,18.3-15.7s15,10.7,15,10.7
	s3.7-6.7,3.3-10c0,0,1.7,6.7,5.7,8.3c4,1.7,8-1.3,13,2.7s14.3,14.3,29.3,20s25.7,8.7,29.3,12c3.7,3.3,2.3,9.7,2.3,9.7s6-0.7,7-4.7
	c0,0,6.7,13.3,6.3,23.3c-0.3,10-3.3,17.7-8.7,21c-5.3,3.3-11.7,4-14.7,8.3c0,0-3,4.7-9.3,5s-12.7,0.7-15.7,5.7s-2,8.3,0,9.3
	s4.3,0.7,4.3,0.7s-0.7,3.3,4.7,3.3s9.7-2.7,14.7-1.7s15,4.7,21,3s9.7-8.3,9.7-8.3s5,1.3,11.7-4s6.7-18,10-19.3c0,0,1.3,3.7,3.7,4.3
	c0,0-1.7-16.7,3.3-21.3c5-4.7,14-10.7,17-14s0.7-6.7-3-11.7s-7-6.7-7-11c0,0,8.3,8.7,14.7,12.7c6.3,4,18.7,19.3,21.7,27.3
	s4,12,2.7,18.7s-3.3,12.3-9,14.3s-14,5-16,10s0.3,8,3.7,8.3c0,0,2.7,4.7,11.7,3.7s15.3-3,19.3-0.3s12.3,4.7,18.7,0.3
	c6.3-4.3,6.7-9,6.7-9s7.3-3.3,10.3-10.3s-1.7-17-5-22s-6-15-5-21.7c0,0,2,3,5.3,2.7c0,0-7-12-7.3-22.3c0,0,5.3-5.7,5-11.7
	s-5.7-12-11.7-16.3s-26-15.7-29.3-25.7s-2-20-2-20s11.3,21,17.3,24.3s11,11.3,11,11.3s0.3-4.7-1.3-8.7c0,0,3,3.7,11.7,6.7
	s12.3,11,12.3,11s1.3-5.3,0-8.3c0,0,24,4,27.4,4.3c0,0-3-7-3-8.7c0,0,23.3-2.7,31.3-11.3c8-8.7,9-16,9-16s19-6,28-10s11,2.3,11,2.3
	s-1.3-9.7-6-12.3c0,0,7-2.3,8.3-4.3c0,0-12.3,0.7-16.3-5c0,0,0.7-14-9-20.7s-39-11-40-11.3s6.3-1.7,8.3-4c0,0-14,3-25.3,2.3
	s-48.3-12-60-28.3s-17.3-15.3-23.3-24.7c-6-9.3-9-23.3-23.3-34.7c-14.3-11.3-22.3-15.3-22.3-15.3s3-0.7,4.7-2.7c0,0-8.3,0.7-12-0.7
	c-3.7-1.3-46.3-6.7-67-5.3c-20.7,1.3-94,7.3-113.3,6.3c-19.3-1-63.3-20-78.3-31.7c-15-11.7-28.7-30-28.7-30s5,1.7,7.3,0
	c0,0-15-14-21-28.3s-8.3-29.7-16.7-38.7c-8.3-9-18.7-17.3-20.3-23.7c-1.7-6.3-12.7-16-19.3-18.3c-6.7-2.3-14.3-5-14.3-5
	s-6-5-15.7-5.3S80.8,7,70.2,11c-10.7,4-16.3,9.3-18.3,12.7C49.8,27,48.1,33.7,48,33.8L48,33.8z"/>
</svg>
