<?xml version="1.0" encoding="UTF-8"?>
<svg id="Glyph" xmlns="http://www.w3.org/2000/svg" viewBox="0 0 56 34.24">
  <defs>
    <style>
      .cls-1 {
        fill: #fff;
      }
    </style>
  </defs>
  <path class="cls-1" d="m55,32.24h-2.97V1c0-.55-.45-1-1-1h-6.77c-.55,0-1,.45-1,1v31.24h-4.33V6.6c0-.55-.45-1-1-1h-6.76c-.55,0-1,.44-1,.99,0,0,0,0,0,0v25.64h-4.34V14.77c0-.55-.44-1-.99-1,0,0,0,0,0,0h-6.76c-.55,0-1,.45-1,1v17.47h-4.33v-11.41c0-.55-.45-1-1-1h-6.77c-.55,0-1,.45-1,1v11.41H1c-.55,0-1,.45-1,1s.45,1,1,1h54c.55,0,1-.45,1-1s-.45-1-1-1Z"/>
</svg>