<?xml version="1.0" encoding="UTF-8"?>
<svg id="Layer_1" data-name="Layer 1" xmlns="http://www.w3.org/2000/svg" viewBox="0 0 163.71 171.33">
  <defs>
    <style>
      .cls-1 {
        fill: #fff;
      }

      .cls-2 {
        fill: #1d2228;
      }
    </style>
  </defs>
  <path class="cls-1" d="m24.96,17.83c7.53-7.34,19.32-5.45,27.88-2.62-9.31-7.46-3.17-17.37,9.69-14.79,13.55,2.72,27.75,8.3,37.98,13.91,27.95,15.31,50.39,44.75,59.36,75.44,6.64,22.71,6.24,53.18-14.18,69.8-24.54,19.97-56.6,12.63-74.84-8-14.12-15.98-25.98-28.01-48.11-39.58-7.27-3.8-20.8-4.27-21.77-14.26-.66-6.85,5.07-11.67,12.43-15.12-9.13-7.27-15.71-14.72-12.65-26.78,3.69-14.54,17.74-18.94,30.79-17.43-7.92-3.2-13.42-13.91-6.59-20.57Z"/>
  <path class="cls-2" d="m144.67,130.09c-6.76.95-10.92-6.9-11.68-12.52-.73-5.4,1.13-9.57,6.6-11.08,4.15-1.15,7.95.57,10.36,4.04,4.33,6.23,3.94,18.28-5.28,19.56Z"/>
  <path class="cls-2" d="m95.01,122.99c8.44-1.39,12.83,10.64,10.85,17.11-1.82,5.96-8.89,8.01-14.1,4.8-5.75-3.54-8.11-11.19-4.2-17.08,1.55-2.34,4.63-4.37,7.45-4.83Z"/>
  <path class="cls-2" d="m108.88,114.41c-1.31-.15-2.43-1.12-2.71-2.48-1.25-6.05,1.21-11.05,6.26-12.74,4.2-1.4,8.82.37,11.76,4.53,1,1.41.67,3.36-.74,4.36-1.41,1-3.37.67-4.37-.74-.36-.51-2.29-3.01-4.67-2.21-2.64.88-2.45,3.84-2.11,5.53.35,1.69-.74,3.35-2.43,3.7-.33.07-.67.08-.99.04Z"/>
</svg>