<?xml version="1.0" encoding="UTF-8"?>
<svg id="Layer_1" data-name="Layer 1" xmlns="http://www.w3.org/2000/svg" viewBox="0 0 168.94 187.49">
  <defs>
    <style>
      .cls-1 {
        fill: #fff;
      }

      .cls-2 {
        fill: #1d2228;
      }
    </style>
  </defs>
  <path class="cls-1" d="m38.43,174c9.14,6.5,21.26,2.57,29.83-1.81-8.59,9.39-.49,18.84,12.64,14,13.84-5.1,27.89-13.31,37.76-20.91,26.95-20.73,49.05-55.19,50.19-89.29.74-22.2-3.16-54.09-27.42-68.26-29.15-17.02-61.74-4.02-77.58,20.73-12.27,19.17-21.79,30.8-43.23,46.63C13.58,80.27-.6,82.99.02,93.69c.43,7.33,7.27,11.47,15.59,13.9-8.43,9.16-14.14,18.1-8.93,30.32,6.28,14.72,21.82,17.05,35.33,13.32-7.83,4.68-11.87,16.87-3.57,22.76Z"/>
  <path class="cls-2" d="m127.69,65.82c-.05-.68-.45-1.49-2.08-1.49-2.93,0-16.26.97-17.58,1.11-.44.04-.84.27-1.1.63-.26.36-.36.81-.28,1.24,1.28,6.4,4.79,9.99,10.9,9.99h0c8.87-.63,10.35-8.53,10.14-11.47Z"/>
  <path class="cls-2" d="m87.82,61.58c-5.65,0-10.85-3.23-13.32-8.29-.76-1.56-.11-3.43,1.44-4.19,1.56-.76,3.43-.11,4.19,1.44,1.76,3.61,5.22,4.84,7.89,4.77,1.49-.04,5.13-.56,6.88-4.63.68-1.59,2.52-2.33,4.11-1.64,1.59.68,2.32,2.52,1.64,4.11-2.21,5.14-6.87,8.29-12.48,8.42-.12,0-.24,0-.35,0Z"/>
  <path class="cls-2" d="m144.05,59.39c-5.13,0-9.84-3.46-12.23-7.61-.86-1.5-.35-3.41,1.15-4.28,1.5-.86,3.41-.35,4.27,1.15,1.75,3.05,5.5,5.4,8.75,4.08,1.38-.56,3.86-3.35,3.96-4.45-.1-1.73,1.21-3.18,2.94-3.29,1.73-.09,3.21,1.24,3.31,2.96.27,4.45-4.92,9.37-7.84,10.57-1.45.59-2.9.86-4.32.86Z"/>
</svg>