<?xml version="1.0" encoding="UTF-8"?>
<svg id="Layer_1" data-name="Layer 1" xmlns="http://www.w3.org/2000/svg" viewBox="0 0 151.81 197.19">
  <defs>
    <style>
      .cls-1 {
        fill: #fff;
      }

      .cls-2 {
        fill: #1d2228;
      }
    </style>
  </defs>
  <path class="cls-1" d="m150.09,156.12c-4.02-6.24-8.11-15.12-10.72-22.43-9.16-25.59-7.49-60.4-8.37-77.57-1.48-28.7-14.89-53.19-48.19-55.84C6.12-5.83-8.27,92.28,3.76,150.28c3.24,15.64,13.49,35.38,29.54,39.39,9.79,2.45,17.14-5.11,16.24-13.09,7.1,24.03,58.53,30.96,57.4-.62,13.9,17.36,32.5,5.32,28.49-7.81,12.04,8.51,20.06-3.65,14.66-12.04Z"/>
  <path class="cls-2" d="m50.94,46.38c.93-8.19-6.56-11.4-13.35-9.03-6.28,2.2-10.92,7.66-11.92,14.25-1.28,8.47,7.87,11.58,15.68,9.48,6.43-1.73,8.85-8.22,9.59-14.71Z"/>
  <path class="cls-2" d="m102.21,63.58c11.54-3.29,9.06-18.14.43-23.11-11.71-6.74-21.69,7.73-17.46,17.68,2.56,6.03,11.47,7.01,17.02,5.43Z"/>
  <path class="cls-2" d="m75.25,66.36c-.39-.53-.99-.87-1.65-.94-1.44-.15-14.48-.97-17.25-.97-2.47,0-2.79,1.7-2.82,2.21-.22,3.04.82,6.19,2.79,8.43,1.75,1.98,4.08,3.11,6.74,3.25.29.01.57.02.85.02,6.18,0,10.46-3.7,11.75-10.15.13-.65-.02-1.32-.41-1.85Z"/>
</svg>