<?xml version="1.0" encoding="UTF-8"?>
<svg id="Layer_1" data-name="Layer 1" xmlns="http://www.w3.org/2000/svg" viewBox="0 0 156.57 171.64">
  <defs>
    <style>
      .cls-1 {
        fill: #fff;
      }

      .cls-2 {
        fill: #1d2228;
      }
    </style>
  </defs>
  <path class="cls-1" d="m133.85,43.65C123.84,15.29,104.28-6.56,63.82,1.81c-20.36,4.21-29.5,17.9-36.14,38.67-9.34,29.19-1,66.59-20.27,90.5-3.94,4.89-10.6,9.73-5.64,15.05,10.86,11.62,25.41.01,25.61.08,2.91,30.81,50.89,33.99,64.37,8.16,11.2,21.84,40.5,11.4,41.11-2.38,6.41,5.16,21.1,4.48,23.48-5.09,1.54-6.21-4.82-4.02-8.28-21.66-5.32-27.14-4.79-54.84-14.2-81.5Z"/>
  <path class="cls-2" d="m68.89,41.62c-2.5-13.14-19.7-8.33-22.79.99-2.68,8.12.9,16.6,10.82,15.86,9.03-.67,13.56-8.52,11.97-16.86Z"/>
  <path class="cls-2" d="m121.13,50.56c2.39-8.28-5.54-20.88-16.83-17.44-7.6,2.32-6.41,16.47-1.02,20.7,4.92,3.86,15.95,3.33,17.85-3.26Z"/>
  <path class="cls-2" d="m86.63,73.84c5.1.33,9.29-3.13,10.78-9,.44-1.72-.6-3.47-2.32-3.9-1.72-.44-3.46.6-3.9,2.32-.43,1.71-1.55,4.55-4.42,4.15-2.32-.3-4.64-2.59-4.91-4.24-.29-1.75-1.94-2.93-3.69-2.64-1.75.29-2.94,1.94-2.65,3.69.76,4.62,5.43,8.9,10.41,9.56.24.03.47.05.71.07Z"/>
</svg>